<?xml version="1.0" encoding="UTF-8" standalone="no" ?>
<svg xmlns="http://www.w3.org/2000/svg" xmlns:xlink="http://www.w3.org/1999/xlink" version="1.1" width="30" height="30" viewBox="0 0 1080 1080" xml:space="preserve">
<defs>
</defs>
<g transform="matrix(1 0 0 1 540 540)" id="b6c8b438-6ffa-4508-a518-125745ed8df2"  >
<rect style="stroke: none; stroke-width: 1; stroke-dasharray: none; stroke-linecap: butt; stroke-dashoffset: 0; stroke-linejoin: miter; stroke-miterlimit: 4; fill: rgb(255,255,255); fill-rule: nonzero; opacity: 1; visibility: hidden;" vector-effect="non-scaling-stroke"  x="-540" y="-540" rx="0" ry="0" width="1080" height="1080" />
</g>
<g transform="matrix(1 0 0 1 540 540)" id="fcc52113-c07a-44c3-a4d4-39c8cc093063"  >
</g>
<g transform="matrix(31.64 0 0 31.64 714.02 856.41)"  >
<path style="stroke: none; stroke-width: 1; stroke-dasharray: none; stroke-linecap: butt; stroke-dashoffset: 0; stroke-linejoin: miter; stroke-miterlimit: 4; fill: rgb(77,77,77); fill-rule: nonzero; opacity: 1;" vector-effect="non-scaling-stroke"  transform=" translate(-21.5, -26)" d="M 29 25 L 14 25 C 13.447715250169207 25 13 25.447715250169207 13 26 C 13 26.552284749830793 13.447715250169207 27 14 27 L 29 27 C 29.552284749830793 27 30 26.552284749830793 30 26 C 30 25.447715250169207 29.552284749830793 25 29 25 Z" stroke-linecap="round" />
</g>
<g transform="matrix(31.64 0 0 31.64 223.59 826.65)"  >
<path style="stroke: none; stroke-width: 1; stroke-dasharray: none; stroke-linecap: butt; stroke-dashoffset: 0; stroke-linejoin: miter; stroke-miterlimit: 4; fill: rgb(77,77,77); fill-rule: nonzero; opacity: 1;" vector-effect="non-scaling-stroke"  transform=" translate(-6, -25)" d="M 9.71 21.29 C 9.522233400094445 21.1006873491769 9.26663753637056 20.994201675658328 9 20.994201675658328 C 8.733362463629442 20.994201675658328 8.477766599905557 21.1006873491769 8.290000000000001 21.29 L 6 23.59 L 3.71 21.29 C 3.317877827620136 20.897877827620135 2.682122172379862 20.897877827620135 2.289999999999999 21.29 C 1.8978778276201358 21.682122172379863 1.8978778276201367 22.317877827620137 2.2900000000000005 22.71 L 4.59 25 L 2.29 27.29 C 2.100687349176903 27.477766599905554 1.9942016756583294 27.73336246362944 1.9942016756583294 28 C 1.9942016756583294 28.26663753637056 2.100687349176903 28.522233400094443 2.29 28.71 C 2.4777665999055563 28.8993126508231 2.7333624636294416 29.005798324341672 3 29.005798324341672 C 3.2666375363705584 29.005798324341672 3.5222334000944437 28.8993126508231 3.71 28.71 L 6 26.41 L 8.29 28.71 C 8.477766599905555 28.8993126508231 8.73336246362944 29.005798324341672 9 29.005798324341672 C 9.266637536370558 29.005798324341672 9.522233400094443 28.8993126508231 9.709999999999999 28.71 C 9.899312650823097 28.522233400094443 10.00579832434167 28.26663753637056 10.00579832434167 28 C 10.00579832434167 27.73336246362944 9.899312650823095 27.477766599905554 9.709999999999999 27.29 L 7.41 25 L 9.71 22.71 C 9.899312650823099 22.522233400094443 10.005798324341672 22.26663753637056 10.005798324341672 22 C 10.005798324341672 21.73336246362944 9.899312650823097 21.477766599905554 9.71 21.29 Z" stroke-linecap="round" />
</g>
<g transform="matrix(0 0 0 0 0 0)"  >
<g style=""   >
</g>
</g>
<g transform="matrix(31.64 0 0 31.64 714.02 856.41)"  >
<path style="stroke: none; stroke-width: 1; stroke-dasharray: none; stroke-linecap: butt; stroke-dashoffset: 0; stroke-linejoin: miter; stroke-miterlimit: 4; fill: rgb(77,77,77); fill-rule: nonzero; opacity: 1;" vector-effect="non-scaling-stroke"  transform=" translate(-21.5, -26)" d="M 29 25 L 14 25 C 13.447715250169207 25 13 25.447715250169207 13 26 C 13 26.552284749830793 13.447715250169207 27 14 27 L 29 27 C 29.552284749830793 27 30 26.552284749830793 30 26 C 30 25.447715250169207 29.552284749830793 25 29 25 Z" stroke-linecap="round" />
</g>
<g transform="matrix(31.64 0 0 31.64 223.59 826.65)"  >
<path style="stroke: none; stroke-width: 1; stroke-dasharray: none; stroke-linecap: butt; stroke-dashoffset: 0; stroke-linejoin: miter; stroke-miterlimit: 4; fill: rgb(77,77,77); fill-rule: nonzero; opacity: 1;" vector-effect="non-scaling-stroke"  transform=" translate(-6, -25)" d="M 9.71 21.29 C 9.522233400094445 21.1006873491769 9.26663753637056 20.994201675658328 9 20.994201675658328 C 8.733362463629442 20.994201675658328 8.477766599905557 21.1006873491769 8.290000000000001 21.29 L 6 23.59 L 3.71 21.29 C 3.317877827620136 20.897877827620135 2.682122172379862 20.897877827620135 2.289999999999999 21.29 C 1.8978778276201358 21.682122172379863 1.8978778276201367 22.317877827620137 2.2900000000000005 22.71 L 4.59 25 L 2.29 27.29 C 2.100687349176903 27.477766599905554 1.9942016756583294 27.73336246362944 1.9942016756583294 28 C 1.9942016756583294 28.26663753637056 2.100687349176903 28.522233400094443 2.29 28.71 C 2.4777665999055563 28.8993126508231 2.7333624636294416 29.005798324341672 3 29.005798324341672 C 3.2666375363705584 29.005798324341672 3.5222334000944437 28.8993126508231 3.71 28.71 L 6 26.41 L 8.29 28.71 C 8.477766599905555 28.8993126508231 8.73336246362944 29.005798324341672 9 29.005798324341672 C 9.266637536370558 29.005798324341672 9.522233400094443 28.8993126508231 9.709999999999999 28.71 C 9.899312650823097 28.522233400094443 10.00579832434167 28.26663753637056 10.00579832434167 28 C 10.00579832434167 27.73336246362944 9.899312650823095 27.477766599905554 9.709999999999999 27.29 L 7.41 25 L 9.71 22.71 C 9.899312650823099 22.522233400094443 10.005798324341672 22.26663753637056 10.005798324341672 22 C 10.005798324341672 21.73336246362944 9.899312650823097 21.477766599905554 9.71 21.29 Z" stroke-linecap="round" />
</g>
<g transform="matrix(31.64 0 0 31.64 714.12 536.73)"  >
<path style="stroke: none; stroke-width: 1; stroke-dasharray: none; stroke-linecap: butt; stroke-dashoffset: 0; stroke-linejoin: miter; stroke-miterlimit: 4; fill: rgb(77,77,77); fill-rule: nonzero; opacity: 1;" vector-effect="non-scaling-stroke"  transform=" translate(-21.5, -26)" d="M 29 25 L 14 25 C 13.447715250169207 25 13 25.447715250169207 13 26 C 13 26.552284749830793 13.447715250169207 27 14 27 L 29 27 C 29.552284749830793 27 30 26.552284749830793 30 26 C 30 25.447715250169207 29.552284749830793 25 29 25 Z" stroke-linecap="round" />
</g>
<g transform="matrix(31.64 0 0 31.64 223.68 506.97)"  >
<path style="stroke: none; stroke-width: 1; stroke-dasharray: none; stroke-linecap: butt; stroke-dashoffset: 0; stroke-linejoin: miter; stroke-miterlimit: 4; fill: rgb(77,77,77); fill-rule: nonzero; opacity: 1;" vector-effect="non-scaling-stroke"  transform=" translate(-6, -25)" d="M 9.71 21.29 C 9.522233400094445 21.1006873491769 9.26663753637056 20.994201675658328 9 20.994201675658328 C 8.733362463629442 20.994201675658328 8.477766599905557 21.1006873491769 8.290000000000001 21.29 L 6 23.59 L 3.71 21.29 C 3.317877827620136 20.897877827620135 2.682122172379862 20.897877827620135 2.289999999999999 21.29 C 1.8978778276201358 21.682122172379863 1.8978778276201367 22.317877827620137 2.2900000000000005 22.71 L 4.59 25 L 2.29 27.29 C 2.100687349176903 27.477766599905554 1.9942016756583294 27.73336246362944 1.9942016756583294 28 C 1.9942016756583294 28.26663753637056 2.100687349176903 28.522233400094443 2.29 28.71 C 2.4777665999055563 28.8993126508231 2.7333624636294416 29.005798324341672 3 29.005798324341672 C 3.2666375363705584 29.005798324341672 3.5222334000944437 28.8993126508231 3.71 28.71 L 6 26.41 L 8.29 28.71 C 8.477766599905555 28.8993126508231 8.73336246362944 29.005798324341672 9 29.005798324341672 C 9.266637536370558 29.005798324341672 9.522233400094443 28.8993126508231 9.709999999999999 28.71 C 9.899312650823097 28.522233400094443 10.00579832434167 28.26663753637056 10.00579832434167 28 C 10.00579832434167 27.73336246362944 9.899312650823095 27.477766599905554 9.709999999999999 27.29 L 7.41 25 L 9.71 22.71 C 9.899312650823099 22.522233400094443 10.005798324341672 22.26663753637056 10.005798324341672 22 C 10.005798324341672 21.73336246362944 9.899312650823097 21.477766599905554 9.71 21.29 Z" stroke-linecap="round" />
</g>
<g transform="matrix(31.64 0 0 31.64 714.12 222.2)"  >
<path style="stroke: none; stroke-width: 1; stroke-dasharray: none; stroke-linecap: butt; stroke-dashoffset: 0; stroke-linejoin: miter; stroke-miterlimit: 4; fill: rgb(77,77,77); fill-rule: nonzero; opacity: 1;" vector-effect="non-scaling-stroke"  transform=" translate(-21.5, -26)" d="M 29 25 L 14 25 C 13.447715250169207 25 13 25.447715250169207 13 26 C 13 26.552284749830793 13.447715250169207 27 14 27 L 29 27 C 29.552284749830793 27 30 26.552284749830793 30 26 C 30 25.447715250169207 29.552284749830793 25 29 25 Z" stroke-linecap="round" />
</g>
<g transform="matrix(31.64 0 0 31.64 223.68 192.44)"  >
<path style="stroke: none; stroke-width: 1; stroke-dasharray: none; stroke-linecap: butt; stroke-dashoffset: 0; stroke-linejoin: miter; stroke-miterlimit: 4; fill: rgb(77,77,77); fill-rule: nonzero; opacity: 1;" vector-effect="non-scaling-stroke"  transform=" translate(-6, -25)" d="M 9.71 21.29 C 9.522233400094445 21.1006873491769 9.26663753637056 20.994201675658328 9 20.994201675658328 C 8.733362463629442 20.994201675658328 8.477766599905557 21.1006873491769 8.290000000000001 21.29 L 6 23.59 L 3.71 21.29 C 3.317877827620136 20.897877827620135 2.682122172379862 20.897877827620135 2.289999999999999 21.29 C 1.8978778276201358 21.682122172379863 1.8978778276201367 22.317877827620137 2.2900000000000005 22.71 L 4.59 25 L 2.29 27.29 C 2.100687349176903 27.477766599905554 1.9942016756583294 27.73336246362944 1.9942016756583294 28 C 1.9942016756583294 28.26663753637056 2.100687349176903 28.522233400094443 2.29 28.71 C 2.4777665999055563 28.8993126508231 2.7333624636294416 29.005798324341672 3 29.005798324341672 C 3.2666375363705584 29.005798324341672 3.5222334000944437 28.8993126508231 3.71 28.71 L 6 26.41 L 8.29 28.71 C 8.477766599905555 28.8993126508231 8.73336246362944 29.005798324341672 9 29.005798324341672 C 9.266637536370558 29.005798324341672 9.522233400094443 28.8993126508231 9.709999999999999 28.71 C 9.899312650823097 28.522233400094443 10.00579832434167 28.26663753637056 10.00579832434167 28 C 10.00579832434167 27.73336246362944 9.899312650823095 27.477766599905554 9.709999999999999 27.29 L 7.41 25 L 9.71 22.71 C 9.899312650823099 22.522233400094443 10.005798324341672 22.26663753637056 10.005798324341672 22 C 10.005798324341672 21.73336246362944 9.899312650823097 21.477766599905554 9.71 21.29 Z" stroke-linecap="round" />
</g>
</svg>